<?xml version="1.0" standalone="no"?>
<!DOCTYPE svg PUBLIC "-//W3C//DTD SVG 20010904//EN"
 "http://www.w3.org/TR/2001/REC-SVG-20010904/DTD/svg10.dtd">
<svg version="1.0" xmlns="http://www.w3.org/2000/svg"
 width="128.000000pt" height="128.000000pt" viewBox="0 0 128.000000 128.000000"
 preserveAspectRatio="xMidYMid meet">
<metadata>
Created by potrace 1.14, written by Peter Selinger 2001-2017
</metadata>
<g transform="translate(0.000000,128.000000) scale(0.100000,-0.100000)"
fill="#000000" stroke="none">
<path d="M190 1137 c-16 -4 -35 -17 -42 -30 -15 -27 -19 -875 -5 -920 5 -15
19 -33 31 -39 22 -13 634 -20 669 -8 10 3 82 70 160 147 l142 141 -1 324 c0
178 -4 333 -8 346 -15 45 -27 46 -483 46 -238 1 -446 -2 -463 -7z"/>
</g>
</svg>
